<mxfile host="app.diagrams.net" modified="2024-10-05T12:54:49.844Z" agent="Mozilla/5.0 (Windows NT 10.0; Win64; x64) AppleWebKit/537.36 (KHTML, like Gecko) Chrome/129.0.0.0 Safari/537.36 Edg/129.0.0.0" etag="_F_9QqMcsnag9sWSQD1K" version="24.3.1" type="device">
  <diagram name="Страница — 1" id="pgude2CbgiR68TCUYb5D">
    <mxGraphModel dx="1126" dy="617" grid="1" gridSize="10" guides="1" tooltips="1" connect="1" arrows="1" fold="1" page="1" pageScale="1" pageWidth="827" pageHeight="1169" math="0" shadow="0">
      <root>
        <mxCell id="0" />
        <mxCell id="1" parent="0" />
        <mxCell id="GuLixcx8YhvRPnofkU6h-1" value="Прибор 1" style="rounded=0;whiteSpace=wrap;html=1;" vertex="1" parent="1">
          <mxGeometry x="354" y="120" width="120" height="60" as="geometry" />
        </mxCell>
        <mxCell id="GuLixcx8YhvRPnofkU6h-18" style="edgeStyle=orthogonalEdgeStyle;rounded=0;orthogonalLoop=1;jettySize=auto;html=1;exitX=1;exitY=0.5;exitDx=0;exitDy=0;" edge="1" parent="1" source="GuLixcx8YhvRPnofkU6h-2">
          <mxGeometry relative="1" as="geometry">
            <mxPoint x="640" y="280" as="targetPoint" />
          </mxGeometry>
        </mxCell>
        <mxCell id="GuLixcx8YhvRPnofkU6h-2" value="Прибор 2" style="rounded=0;whiteSpace=wrap;html=1;" vertex="1" parent="1">
          <mxGeometry x="354" y="250" width="120" height="60" as="geometry" />
        </mxCell>
        <mxCell id="GuLixcx8YhvRPnofkU6h-3" value="Прибор 3" style="rounded=0;whiteSpace=wrap;html=1;" vertex="1" parent="1">
          <mxGeometry x="354" y="380" width="120" height="60" as="geometry" />
        </mxCell>
        <mxCell id="GuLixcx8YhvRPnofkU6h-4" value="" style="endArrow=classic;html=1;rounded=0;entryX=0;entryY=0.5;entryDx=0;entryDy=0;endFill=1;" edge="1" parent="1" target="GuLixcx8YhvRPnofkU6h-7">
          <mxGeometry width="50" height="50" relative="1" as="geometry">
            <mxPoint x="40" y="280" as="sourcePoint" />
            <mxPoint x="120" y="280" as="targetPoint" />
          </mxGeometry>
        </mxCell>
        <mxCell id="GuLixcx8YhvRPnofkU6h-5" value="" style="endArrow=classic;html=1;rounded=0;entryX=0;entryY=0.5;entryDx=0;entryDy=0;startArrow=none;startFill=0;endFill=1;" edge="1" parent="1" target="GuLixcx8YhvRPnofkU6h-1">
          <mxGeometry width="50" height="50" relative="1" as="geometry">
            <mxPoint x="120" y="280" as="sourcePoint" />
            <mxPoint x="120" y="140" as="targetPoint" />
            <Array as="points">
              <mxPoint x="120" y="150" />
            </Array>
          </mxGeometry>
        </mxCell>
        <mxCell id="GuLixcx8YhvRPnofkU6h-6" value="" style="endArrow=classic;html=1;rounded=0;entryX=0;entryY=0.5;entryDx=0;entryDy=0;endFill=1;" edge="1" parent="1" target="GuLixcx8YhvRPnofkU6h-8">
          <mxGeometry width="50" height="50" relative="1" as="geometry">
            <mxPoint x="120" y="280" as="sourcePoint" />
            <mxPoint x="440" y="290" as="targetPoint" />
            <Array as="points">
              <mxPoint x="120" y="410" />
            </Array>
          </mxGeometry>
        </mxCell>
        <mxCell id="GuLixcx8YhvRPnofkU6h-10" style="edgeStyle=orthogonalEdgeStyle;rounded=0;orthogonalLoop=1;jettySize=auto;html=1;exitX=1;exitY=0.5;exitDx=0;exitDy=0;" edge="1" parent="1" source="GuLixcx8YhvRPnofkU6h-7" target="GuLixcx8YhvRPnofkU6h-2">
          <mxGeometry relative="1" as="geometry" />
        </mxCell>
        <mxCell id="GuLixcx8YhvRPnofkU6h-7" value="" style="whiteSpace=wrap;html=1;aspect=fixed;" vertex="1" parent="1">
          <mxGeometry x="220" y="265" width="30" height="30" as="geometry" />
        </mxCell>
        <mxCell id="GuLixcx8YhvRPnofkU6h-11" style="edgeStyle=orthogonalEdgeStyle;rounded=0;orthogonalLoop=1;jettySize=auto;html=1;exitX=1;exitY=0.5;exitDx=0;exitDy=0;entryX=0;entryY=0.5;entryDx=0;entryDy=0;" edge="1" parent="1" source="GuLixcx8YhvRPnofkU6h-8" target="GuLixcx8YhvRPnofkU6h-3">
          <mxGeometry relative="1" as="geometry" />
        </mxCell>
        <mxCell id="GuLixcx8YhvRPnofkU6h-8" value="" style="whiteSpace=wrap;html=1;aspect=fixed;" vertex="1" parent="1">
          <mxGeometry x="220" y="395" width="30" height="30" as="geometry" />
        </mxCell>
        <mxCell id="GuLixcx8YhvRPnofkU6h-12" value="r=1" style="text;html=1;align=center;verticalAlign=middle;resizable=0;points=[];autosize=1;strokeColor=none;fillColor=none;" vertex="1" parent="1">
          <mxGeometry x="215" y="365" width="40" height="30" as="geometry" />
        </mxCell>
        <mxCell id="GuLixcx8YhvRPnofkU6h-14" value="r=1" style="text;html=1;align=center;verticalAlign=middle;resizable=0;points=[];autosize=1;strokeColor=none;fillColor=none;" vertex="1" parent="1">
          <mxGeometry x="215" y="235" width="40" height="30" as="geometry" />
        </mxCell>
        <mxCell id="GuLixcx8YhvRPnofkU6h-16" value="" style="endArrow=none;html=1;rounded=0;entryX=1;entryY=0.5;entryDx=0;entryDy=0;" edge="1" parent="1" target="GuLixcx8YhvRPnofkU6h-1">
          <mxGeometry width="50" height="50" relative="1" as="geometry">
            <mxPoint x="560" y="280" as="sourcePoint" />
            <mxPoint x="440" y="290" as="targetPoint" />
            <Array as="points">
              <mxPoint x="560" y="150" />
            </Array>
          </mxGeometry>
        </mxCell>
        <mxCell id="GuLixcx8YhvRPnofkU6h-17" value="" style="endArrow=none;html=1;rounded=0;entryX=1;entryY=0.5;entryDx=0;entryDy=0;" edge="1" parent="1" target="GuLixcx8YhvRPnofkU6h-3">
          <mxGeometry width="50" height="50" relative="1" as="geometry">
            <mxPoint x="560" y="280" as="sourcePoint" />
            <mxPoint x="484" y="160" as="targetPoint" />
            <Array as="points">
              <mxPoint x="560" y="410" />
            </Array>
          </mxGeometry>
        </mxCell>
        <mxCell id="GuLixcx8YhvRPnofkU6h-19" value="&lt;span style=&quot;font-size: 12pt; line-height: 107%; font-family: &amp;quot;Cambria Math&amp;quot;, serif;&quot; lang=&quot;EN-US&quot;&gt;λ = 0,4&lt;/span&gt;" style="text;html=1;align=center;verticalAlign=middle;resizable=0;points=[];autosize=1;strokeColor=none;fillColor=none;" vertex="1" parent="1">
          <mxGeometry x="40" y="250" width="70" height="30" as="geometry" />
        </mxCell>
        <mxCell id="GuLixcx8YhvRPnofkU6h-20" value="&lt;font style=&quot;font-size: 14px;&quot;&gt;&lt;span style=&quot;line-height: 107%; font-family: &amp;quot;Cambria Math&amp;quot;, serif;&quot; lang=&quot;EN-US&quot;&gt;λ1 = 0.6 *&amp;nbsp;&lt;/span&gt;&lt;span style=&quot;font-family: &amp;quot;Cambria Math&amp;quot;, serif;&quot;&gt;λ&lt;/span&gt;&lt;/font&gt;" style="text;html=1;align=center;verticalAlign=middle;resizable=0;points=[];autosize=1;strokeColor=none;fillColor=none;" vertex="1" parent="1">
          <mxGeometry x="125" y="118" width="90" height="30" as="geometry" />
        </mxCell>
        <mxCell id="GuLixcx8YhvRPnofkU6h-21" value="&lt;font style=&quot;font-size: 14px;&quot;&gt;&lt;span style=&quot;line-height: 107%; font-family: &amp;quot;Cambria Math&amp;quot;, serif;&quot; lang=&quot;EN-US&quot;&gt;λ2 = 0.25 *&amp;nbsp;&lt;/span&gt;&lt;span style=&quot;font-family: &amp;quot;Cambria Math&amp;quot;, serif;&quot;&gt;λ&lt;/span&gt;&lt;/font&gt;" style="text;html=1;align=center;verticalAlign=middle;resizable=0;points=[];autosize=1;strokeColor=none;fillColor=none;" vertex="1" parent="1">
          <mxGeometry x="120" y="250" width="100" height="30" as="geometry" />
        </mxCell>
        <mxCell id="GuLixcx8YhvRPnofkU6h-22" value="&lt;font style=&quot;font-size: 14px;&quot;&gt;&lt;span style=&quot;line-height: 107%; font-family: &amp;quot;Cambria Math&amp;quot;, serif;&quot; lang=&quot;EN-US&quot;&gt;λ3 = 0.15 *&amp;nbsp;&lt;/span&gt;&lt;span style=&quot;font-family: &amp;quot;Cambria Math&amp;quot;, serif;&quot;&gt;λ&lt;/span&gt;&lt;/font&gt;" style="text;html=1;align=center;verticalAlign=middle;resizable=0;points=[];autosize=1;strokeColor=none;fillColor=none;" vertex="1" parent="1">
          <mxGeometry x="120" y="380" width="100" height="30" as="geometry" />
        </mxCell>
        <mxCell id="GuLixcx8YhvRPnofkU6h-23" value="&lt;span style=&quot;font-size: 12pt; line-height: 107%; font-family: &amp;quot;Cambria Math&amp;quot;, serif;&quot; lang=&quot;EN-US&quot;&gt;𝜇&lt;/span&gt;" style="text;html=1;align=center;verticalAlign=middle;resizable=0;points=[];autosize=1;strokeColor=none;fillColor=none;" vertex="1" parent="1">
          <mxGeometry x="500" y="120" width="30" height="30" as="geometry" />
        </mxCell>
        <mxCell id="GuLixcx8YhvRPnofkU6h-24" value="&lt;span style=&quot;font-size: 12pt; line-height: 107%; font-family: &amp;quot;Cambria Math&amp;quot;, serif;&quot; lang=&quot;EN-US&quot;&gt;𝜇&lt;/span&gt;" style="text;html=1;align=center;verticalAlign=middle;resizable=0;points=[];autosize=1;strokeColor=none;fillColor=none;" vertex="1" parent="1">
          <mxGeometry x="500" y="250" width="30" height="30" as="geometry" />
        </mxCell>
        <mxCell id="GuLixcx8YhvRPnofkU6h-25" value="&lt;span style=&quot;font-size: 12pt; line-height: 107%; font-family: &amp;quot;Cambria Math&amp;quot;, serif;&quot; lang=&quot;EN-US&quot;&gt;𝜇&lt;/span&gt;" style="text;html=1;align=center;verticalAlign=middle;resizable=0;points=[];autosize=1;strokeColor=none;fillColor=none;" vertex="1" parent="1">
          <mxGeometry x="500" y="380" width="30" height="30" as="geometry" />
        </mxCell>
      </root>
    </mxGraphModel>
  </diagram>
</mxfile>
